# xmcd CD database file
#
# Track frame offsets:
#	150
#	10911
#	21751
#	32149
#	42997
#	57709
#	70613
#	81237
#	93006
#	105839
#	116456
#	128676
#	139785
#	149643
#	162857
#	175001
#	189451
#
# Disc length: 2688 seconds
#
# Revision: 1
# Processed by: cddbd v1.5.2PL0 Copyright (c) Steve Scherf et al.
# Submitted via: CDex 1.70beta2
#
DISCID=dc0a7e11
DTITLE=Various Artist - Best of Classic Country '60s (rec 1959-69)
DYEAR=2006
DGENRE=Country Traditional
TTITLE0=Leroy Van Dyke - Walk on by
TTITLE1=Hank Locklin - Please help me, I'm falling
TTITLE2=Ferlin Husky - Wings of a dove
TTITLE3=Faron Young - Hello walls
TTITLE4=Marty Robbins - Don't worry
TTITLE5=Patsy Cline - I fall to pieces (Hank Cochran, Harlan Howard)
TTITLE6=Jim Reeves - He'll have to go
TTITLE7=George Jones - She thinks I still care (Dickey Lee Lipscomb)
TTITLE8=Bill Anderson - Still (Bill Anderson)
TTITLE9=Connie Smith - Once a day
TTITLE10=Johnny Cash - Understand your man (J.D. Cash)
TTITLE11=Roger Miller - King of the road
TTITLE12=Buck Owens - I've got a tiger by the tail (Harlan Howard, Buck Owens)
TTITLE13=David Houston - Almost persuaded
TTITLE14=Tammy Wynette - Stand by Your Man  (Tammy Wynette)
TTITLE15=Charley Pride - [I'm so] Afraid of losing you again
TTITLE16=Merle Haggard  - Okie from Muskogee
EXTD=YEAR: 2006
EXTT0=
EXTT1=
EXTT2=
EXTT3=
EXTT4=
EXTT5=
EXTT6=
EXTT7=
EXTT8=
EXTT9=
EXTT10=
EXTT11=
EXTT12=
EXTT13=
EXTT14=
EXTT15=
EXTT16=
PLAYORDER=
